<svg width="21" height="31" viewBox="0 0 21 31" fill="none" xmlns="http://www.w3.org/2000/svg">
<path fill-rule="evenodd" clip-rule="evenodd" d="M6.91113 7.28882H8.27545C9.5269 7.28882 10.9533 7.3571 12.0328 8.09295C12.56 8.4695 13.4445 9.34124 13.4445 10.9246C13.4445 12.0946 12.9274 13.1437 12.0734 13.7984C10.9783 14.5932 9.67678 14.5476 8.63094 14.5476H6.91113V7.28882ZM9.97695 19.8179C13.2084 19.8179 15.7377 18.8858 17.4943 17.1298C19.655 14.9735 19.9779 12.0073 19.9779 10.4435C19.9779 8.77026 19.5813 5.50658 16.9212 3.1435C14.7407 1.23282 12.4142 0.755371 9.13242 0.755371H0.37793V29.7924H7.03652V19.8179H9.97695Z" fill="#6B7B84"/>
<path d="M6.91113 7.28882V7.03882H6.66113V7.28882H6.91113ZM12.0328 8.09295L12.1782 7.88948L12.1736 7.88638L12.0328 8.09295ZM12.0734 13.7984L12.2203 14.0007L12.2254 13.9968L12.0734 13.7984ZM6.91113 14.5476H6.66113V14.7976H6.91113V14.5476ZM17.4943 17.1298L17.3177 16.9529L17.3175 16.953L17.4943 17.1298ZM16.9212 3.1435L17.0872 2.95659L17.086 2.95548L16.9212 3.1435ZM0.37793 0.755371V0.505371H0.12793V0.755371H0.37793ZM0.37793 29.7924H0.12793V30.0424H0.37793V29.7924ZM7.03652 29.7924V30.0424H7.28652V29.7924H7.03652ZM7.03652 19.8179V19.5679H6.78652V19.8179H7.03652ZM6.91113 7.53882H8.27545V7.03882H6.91113V7.53882ZM8.27545 7.53882C9.53262 7.53882 10.8839 7.61233 11.892 8.29953L12.1736 7.88638C11.0227 7.10187 9.52118 7.03882 8.27545 7.03882V7.53882ZM11.8875 8.29638C12.3751 8.64471 13.1945 9.44952 13.1945 10.9246H13.6945C13.6945 9.23295 12.7448 8.2943 12.1782 7.88953L11.8875 8.29638ZM13.1945 10.9246C13.1945 12.0205 12.7107 12.9948 11.9213 13.5999L12.2254 13.9968C13.1441 13.2926 13.6945 12.1687 13.6945 10.9246H13.1945ZM11.9265 13.596C10.9091 14.3345 9.69713 14.2976 8.63094 14.2976V14.7976C9.65642 14.7976 11.0475 14.8519 12.2202 14.0007L11.9265 13.596ZM8.63094 14.2976H6.91113V14.7976H8.63094V14.2976ZM7.16113 14.5476V7.28882H6.66113V14.5476H7.16113ZM9.97695 20.0679C13.2568 20.0679 15.8563 19.1207 17.671 17.3066L17.3175 16.953C15.6191 18.6509 13.1599 19.5679 9.97695 19.5679V20.0679ZM17.6709 17.3068C19.9029 15.0793 20.2279 12.0287 20.2279 10.4435H19.7279C19.7279 11.9859 19.407 14.8678 17.3177 16.9529L17.6709 17.3068ZM20.2279 10.4435C20.2279 8.74217 19.8263 5.38982 17.0872 2.9566L16.7552 3.3304C19.3363 5.62335 19.7279 8.79834 19.7279 10.4435H20.2279ZM17.086 2.95548C14.84 0.987403 12.4417 0.505371 9.13242 0.505371V1.00537C12.3867 1.00537 14.6415 1.47824 16.7564 3.33153L17.086 2.95548ZM9.13242 0.505371H0.37793V1.00537H9.13242V0.505371ZM0.12793 0.755371V29.7924H0.62793V0.755371H0.12793ZM0.37793 30.0424H7.03652V29.5424H0.37793V30.0424ZM7.28652 29.7924V19.8179H6.78652V29.7924H7.28652ZM7.03652 20.0679H9.97695V19.5679H7.03652V20.0679Z" fill="#80949F"/>
</svg>
