<svg width="22" height="31" viewBox="0 0 22 31" fill="none" xmlns="http://www.w3.org/2000/svg">
<path fill-rule="evenodd" clip-rule="evenodd" d="M18.953 14.4687C17.5053 13.1861 15.4846 12.4425 13.1911 11.6713C11.5569 11.1027 10.6565 10.7894 10.0562 10.2421C9.58245 9.8399 9.3712 9.40328 9.3712 8.82619C9.3712 7.56217 10.2301 6.21133 12.6414 6.21133C14.2801 6.21133 15.6521 6.91199 16.7197 8.29304L17.1435 8.8414L20.6597 4.36557L20.3392 4.04449C18.1886 1.89244 15.3548 0.755371 12.1439 0.755371C5.66566 0.755371 2.76577 4.96991 2.76577 9.14684C2.76577 11.3882 3.56512 13.196 5.13666 14.5175C6.54368 15.7234 8.25953 16.3991 9.9054 16.9507L10.0914 17.0123C11.553 17.4954 13.0646 17.9954 13.9674 18.8034C14.5955 19.3805 14.8754 20.0076 14.8754 20.8367C14.8754 22.7368 13.379 24.0137 11.152 24.0137C9.39163 24.0137 7.07354 23.1508 5.84713 20.7296L5.52634 20.0953L1.15576 24.1411L1.41352 24.5056C2.80793 26.4801 5.95449 29.7924 11.3594 29.7924C17.3191 29.7924 21.4817 25.9608 21.4817 20.4751C21.4817 17.3374 20.1051 15.4752 18.953 14.4687Z" fill="#6B7B84"/>
<path d="M18.953 14.4687C17.5053 13.1861 15.4846 12.4425 13.1911 11.6713C11.5569 11.1027 10.6565 10.7894 10.0562 10.2421C9.58244 9.8399 9.3712 9.40328 9.3712 8.82619C9.3712 7.56217 10.2301 6.21133 12.6414 6.21133C14.2801 6.21133 15.6521 6.91199 16.7197 8.29304L17.1435 8.8414L20.6597 4.36557L20.3392 4.04449C18.1886 1.89244 15.3548 0.755371 12.1439 0.755371C5.66566 0.755371 2.76577 4.96991 2.76577 9.14684C2.76577 11.3882 3.56512 13.196 5.13666 14.5175C6.54368 15.7234 8.25953 16.3991 9.9054 16.9507L10.0914 17.0123C11.553 17.4954 13.0646 17.9954 13.9674 18.8034C14.5955 19.3805 14.8754 20.0076 14.8754 20.8367C14.8754 22.7368 13.379 24.0137 11.152 24.0137C9.39163 24.0137 7.07354 23.1508 5.84713 20.7296L5.52634 20.0953L1.15576 24.1411L1.41352 24.5056C2.80793 26.4801 5.95449 29.7924 11.3594 29.7924C17.3191 29.7924 21.4817 25.9608 21.4817 20.4751C21.4817 17.3374 20.1051 15.4752 18.953 14.4687" stroke="#80949F" stroke-width="0.5"/>
</svg>
