<svg width="24" height="31" viewBox="0 0 24 31" fill="none" xmlns="http://www.w3.org/2000/svg">
<path fill-rule="evenodd" clip-rule="evenodd" d="M16.1415 29.7924C18.8803 29.7924 21.1616 29.2603 23.4149 28.1655L23.5704 28.0199V20.1855L22.7273 21.2649C21.1049 23.0378 18.9259 24.0137 16.4608 24.0137C11.8692 24.0137 7.25753 21.0459 7.25753 15.3738C7.25753 11.0874 10.4381 6.53198 16.2993 6.53198C17.4688 6.53198 20.313 6.80849 22.7232 9.368L23.5704 10.4117V2.61275L23.4218 2.46531C21.1258 1.31472 18.7843 0.755371 16.1137 0.755371C11.5467 0.755371 7.98209 1.95771 5.14384 4.42894C3.3435 5.9777 0.34082 9.44848 0.34082 15.2923C0.34082 19.6131 1.87934 22.9875 5.16687 25.9144C8.2252 28.5962 11.6163 29.7924 16.1415 29.7924Z" fill="#6B7B84"/>
<path d="M16.1415 29.7924C18.8803 29.7924 21.1616 29.2603 23.4149 28.1655L23.5704 28.0199V20.1855L22.7273 21.2649C21.1049 23.0378 18.9259 24.0137 16.4608 24.0137C11.8692 24.0137 7.25753 21.0459 7.25753 15.3738C7.25753 11.0874 10.4381 6.53198 16.2993 6.53198C17.4688 6.53198 20.313 6.80849 22.7232 9.368L23.5704 10.4117V2.61275L23.4218 2.46531C21.1258 1.31472 18.7843 0.755371 16.1137 0.755371C11.5467 0.755371 7.98209 1.95771 5.14384 4.42894C3.3435 5.9777 0.34082 9.44848 0.34082 15.2923C0.34082 19.6131 1.87934 22.9875 5.16687 25.9144C8.2252 28.5962 11.6163 29.7924 16.1415 29.7924" stroke="#80949F" stroke-width="0.5"/>
</svg>
