<svg width="8" height="11" viewBox="0 0 8 11" fill="none" xmlns="http://www.w3.org/2000/svg">
<path fill-rule="evenodd" clip-rule="evenodd" d="M1.5 10.5L4 8L6.5 10.5C6.77614 10.7761 7.22386 10.7761 7.5 10.5C7.77614 10.2239 7.77614 9.77614 7.5 9.5L4.70711 6.70711C4.31658 6.31658 3.68342 6.31658 3.29289 6.70711L0.5 9.5C0.223858 9.77614 0.223857 10.2239 0.5 10.5C0.776143 10.7761 1.22386 10.7761 1.5 10.5ZM1.5 4.5L4 2L6.5 4.5C6.77614 4.77614 7.22386 4.77614 7.5 4.5C7.77614 4.22386 7.77614 3.77614 7.5 3.5L4.70711 0.707107C4.31658 0.316583 3.68342 0.316582 3.29289 0.707106L0.5 3.5C0.223858 3.77614 0.223857 4.22386 0.5 4.5C0.776143 4.77614 1.22386 4.77614 1.5 4.5Z" fill="#41F6D7"/>
</svg>
